<?xml version="1.0" standalone="no"?>
<!DOCTYPE svg PUBLIC "-//W3C//DTD SVG 20010904//EN"
 "http://www.w3.org/TR/2001/REC-SVG-20010904/DTD/svg10.dtd">
<svg version="1.0" xmlns="http://www.w3.org/2000/svg"
 width="658.000000pt" height="658.000000pt" viewBox="0 0 658.000000 658.000000"
 preserveAspectRatio="xMidYMid meet">

<g transform="translate(0.000000,658.000000) scale(0.100000,-0.100000)"
fill="#000000" stroke="none">
<path d="M1283 6193 c-31 -6 -70 -48 -77 -84 -3 -18 -6 -148 -6 -291 0 -278 5
-309 51 -342 34 -23 93 -21 124 7 38 32 44 78 45 300 l0 197 203 0 c220 0 266
7 297 47 24 31 26 89 4 122 -33 47 -63 51 -351 50 -147 -1 -278 -4 -290 -6z"/>
<path d="M4773 6185 c-33 -14 -63 -59 -63 -95 0 -31 27 -77 53 -92 15 -9 88
-14 250 -16 l227 -4 0 -218 c0 -237 4 -261 51 -286 48 -24 87 -18 125 20 l34
34 0 294 c0 273 -1 295 -20 325 -13 21 -31 35 -57 42 -60 17 -560 14 -600 -4z"/>
<path d="M1260 2677 c-14 -7 -33 -28 -42 -47 -16 -31 -18 -68 -18 -308 0 -302
4 -328 60 -357 26 -14 70 -15 326 -13 l296 3 29 33 c48 54 35 129 -28 161 -14
7 -100 11 -242 11 l-221 0 0 208 c0 114 -5 224 -11 245 -17 63 -89 94 -149 64z"/>
<path d="M5288 2673 c-15 -9 -31 -24 -35 -33 -5 -8 -10 -118 -13 -245 l-5
-230 -233 -5 -234 -5 -30 -34 c-26 -29 -30 -39 -25 -74 3 -25 16 -50 31 -66
l26 -26 310 0 310 0 27 28 28 27 0 310 0 310 -26 26 c-34 33 -94 41 -131 17z"/>
<path d="M802 960 c-96 -20 -179 -95 -203 -182 -16 -61 -7 -195 16 -243 50
-101 146 -152 274 -143 78 6 135 32 181 84 28 32 60 90 60 109 0 3 -30 5 -66
5 -63 0 -69 -2 -101 -35 -55 -57 -145 -60 -196 -7 -50 53 -61 146 -26 219 28
57 65 77 138 71 48 -4 59 -9 87 -41 30 -36 33 -37 98 -37 65 0 67 1 61 23 -22
71 -86 139 -155 165 -41 15 -122 21 -168 12z"/>
<path d="M1335 821 c-160 -72 -166 -324 -10 -405 48 -25 149 -33 200 -16 49
16 104 66 126 115 37 81 18 202 -41 264 -58 60 -191 80 -275 42z m156 -101
c64 -35 63 -172 -2 -205 -59 -31 -120 -4 -138 61 -28 101 57 188 140 144z"/>
<path d="M1770 615 l0 -225 65 0 65 0 0 141 0 141 29 29 c38 37 88 39 127 5
27 -23 28 -25 32 -170 l5 -146 58 0 59 0 0 113 c1 180 21 227 99 227 77 -1 91
-33 91 -204 l0 -136 66 0 66 0 -4 163 c-3 180 -14 219 -71 259 -32 23 -109 35
-152 24 -14 -4 -45 -24 -69 -46 l-42 -39 -17 28 c-22 37 -73 61 -132 61 -53 0
-95 -19 -124 -56 l-21 -27 0 42 0 41 -65 0 -65 0 0 -225z"/>
<path d="M2650 510 l0 -330 45 0 45 0 0 330 0 330 -45 0 -45 0 0 -330z"/>
</g>
</svg>
