<?xml version="1.0" standalone="no"?>
<!DOCTYPE svg PUBLIC "-//W3C//DTD SVG 20010904//EN"
 "http://www.w3.org/TR/2001/REC-SVG-20010904/DTD/svg10.dtd">
<svg version="1.0" xmlns="http://www.w3.org/2000/svg"
 width="1066.000000pt" height="367.000000pt" viewBox="0 0 1066.000000 367.000000"
 preserveAspectRatio="xMidYMid meet">

<g transform="translate(0.000000,367.000000) scale(0.100000,-0.100000)"
fill="#000000" stroke="none">
<path d="M5140 3455 l0 -55 55 0 55 0 0 55 0 55 -55 0 -55 0 0 -55z"/>
<path d="M5420 3455 l0 -55 55 0 55 0 0 55 0 55 -55 0 -55 0 0 -55z"/>
<path d="M240 3236 c0 -19 4 -23 20 -19 16 4 20 0 20 -17 0 -18 -4 -21 -21
-17 -16 4 -19 3 -11 -5 16 -16 42 -2 42 23 0 12 -8 23 -20 26 -27 7 -25 21 3
26 19 4 18 4 -5 6 -23 1 -28 -3 -28 -23z"/>
<path d="M311 3238 c-11 -30 2 -63 25 -63 27 0 28 78 1 83 -11 2 -20 -5 -26
-20z m34 -23 c0 -16 -6 -30 -12 -32 -9 -3 -13 7 -13 32 0 25 4 35 13 33 6 -3
12 -17 12 -33z"/>
<path d="M10387 2903 c-4 -3 -7 -557 -7 -1230 l0 -1223 -75 0 -75 0 0 389 c0
328 -2 390 -15 401 -8 6 -19 9 -25 5 -7 -4 -10 -137 -10 -401 l0 -394 -75 0
-75 0 0 214 c0 175 -3 216 -15 226 -31 26 -35 0 -35 -221 l0 -219 -75 0 -75 0
0 134 c0 105 -3 136 -15 146 -29 24 -35 0 -35 -141 l0 -139 -75 0 -75 0 0 94
c0 70 -4 97 -15 106 -27 23 -35 0 -35 -101 l0 -99 -75 0 -75 0 0 69 c0 48 -4
72 -15 81 -25 21 -35 1 -35 -76 l0 -74 -75 0 -75 0 0 54 c0 35 -5 58 -15 66
-24 20 -35 2 -35 -61 l0 -59 -75 0 -75 0 0 44 c0 44 -19 74 -40 61 -5 -3 -10
-28 -10 -56 l0 -49 -75 0 -75 0 0 34 c0 35 -21 63 -40 51 -5 -3 -10 -24 -10
-46 l0 -39 -75 0 c-72 0 -75 1 -75 24 0 26 -24 51 -40 41 -5 -3 -10 -19 -10
-36 l0 -29 -75 0 c-67 0 -75 2 -75 19 0 22 -25 45 -40 36 -5 -3 -10 -17 -10
-31 0 -23 -2 -24 -73 -24 -65 0 -73 2 -82 23 -13 29 -39 29 -43 -1 -3 -20 -8
-22 -74 -22 -59 0 -72 3 -87 22 -18 22 -41 18 -41 -8 0 -11 -16 -14 -71 -14
-60 0 -73 3 -88 22 -18 22 -41 18 -41 -8 0 -22 -137 -20 -163 3 -18 17 -19 17
-32 0 -18 -24 -140 -24 -168 0 -18 17 -19 17 -32 0 -18 -24 -140 -24 -168 0
-18 17 -19 17 -32 0 -18 -24 -140 -24 -168 0 -18 17 -19 17 -32 0 -9 -13 -27
-17 -82 -17 -41 0 -74 5 -81 12 -10 10 -17 10 -32 0 -25 -15 -152 -16 -167 -1
-7 7 -19 8 -30 4 -31 -14 -147 -16 -170 -4 -15 8 -26 9 -35 2 -15 -12 -1032
-12 -1044 -1 -4 4 -13 3 -20 -2 -13 -12 -178 -9 -190 3 -4 4 -13 2 -20 -4 -16
-13 -158 -6 -177 9 -11 10 -17 9 -27 -3 -10 -12 -29 -15 -86 -12 -40 2 -79 9
-87 15 -11 10 -17 9 -27 -3 -10 -12 -29 -15 -86 -12 -40 2 -79 9 -87 15 -11
10 -17 9 -27 -3 -9 -11 -32 -15 -84 -15 -62 0 -73 3 -85 22 l-14 22 -17 -22
c-16 -19 -28 -22 -87 -22 -59 0 -70 3 -82 22 l-14 22 -17 -22 c-16 -19 -28
-22 -87 -22 -60 0 -69 3 -78 21 -13 28 -27 28 -40 0 -9 -19 -18 -21 -82 -21
-65 0 -73 2 -73 19 0 26 -23 44 -38 29 -7 -7 -12 -20 -12 -30 0 -16 -9 -18
-75 -18 -67 0 -75 2 -75 19 0 26 -23 44 -38 29 -7 -7 -12 -20 -12 -30 0 -16
-9 -18 -75 -18 -72 0 -75 1 -75 24 0 31 -22 50 -38 34 -7 -7 -12 -22 -12 -35
0 -22 -3 -23 -75 -23 l-75 0 0 29 c0 35 -21 56 -38 39 -7 -7 -12 -25 -12 -40
l0 -28 -75 0 -75 0 0 39 c0 43 -19 68 -38 49 -7 -7 -12 -29 -12 -50 l0 -38
-75 0 -75 0 0 44 c0 48 -18 74 -38 54 -7 -7 -12 -31 -12 -55 l0 -43 -75 0 -75
0 0 59 c0 36 -5 63 -13 70 -23 18 -37 -9 -37 -71 l0 -58 -75 0 -75 0 0 74 c0
49 -4 77 -13 85 -25 20 -37 -9 -37 -86 l0 -73 -75 0 -75 0 0 89 c0 61 -4 92
-13 100 -26 21 -37 -9 -37 -101 l0 -88 -75 0 -75 0 0 109 c0 78 -4 112 -13
120 -27 22 -37 -9 -37 -121 l0 -108 -75 0 -75 0 0 139 c0 103 -3 141 -13 150
-29 23 -37 -9 -37 -151 l0 -138 -75 0 -75 0 0 174 c0 132 -3 176 -13 185 -30
25 -37 -9 -37 -186 l0 -173 -75 0 -75 0 0 224 c0 173 -3 226 -13 235 -32 26
-37 -8 -37 -236 l0 -223 -75 0 -75 0 0 279 c0 219 -3 281 -13 290 -33 27 -37
-7 -37 -291 l0 -278 -75 0 -75 0 0 354 c0 281 -3 356 -13 365 -34 27 -37 -6
-37 -366 l0 -353 -75 0 -75 0 0 399 c0 318 -3 401 -13 410 -34 28 -37 -4 -37
-411 l0 -398 -75 0 -75 0 0 184 c0 140 -3 186 -13 195 -31 25 -37 -9 -37 -195
l0 -183 -37 -4 c-21 -2 2230 -4 5002 -4 2772 0 5023 2 5003 4 l-38 4 0 1218
c0 1209 -1 1241 -30 1241 -4 0 -10 -3 -13 -7z"/>
<path d="M257 2683 c-21 -39 -21 -43 -2 -43 8 0 15 -5 15 -10 0 -6 6 -5 14 2
8 7 10 15 6 18 -5 3 -10 19 -12 35 l-3 30 -18 -32z m13 -18 c0 -8 -4 -15 -10
-15 -5 0 -7 7 -4 15 4 8 8 15 10 15 2 0 4 -7 4 -15z"/>
<path d="M311 2688 c-11 -30 2 -63 25 -63 27 0 28 78 1 83 -11 2 -20 -5 -26
-20z m34 -23 c0 -16 -6 -30 -12 -32 -9 -3 -13 7 -13 32 0 25 4 35 13 33 6 -3
12 -17 12 -33z"/>
<path d="M246 2151 c-3 -5 3 -7 14 -4 22 6 29 -22 8 -30 -10 -4 -10 -6 0 -6 6
-1 12 -8 12 -17 0 -12 -6 -15 -21 -11 -16 4 -19 3 -11 -5 21 -21 41 -1 39 39
-2 37 -27 58 -41 34z"/>
<path d="M311 2138 c-11 -30 2 -63 25 -63 27 0 28 78 1 83 -11 2 -20 -5 -26
-20z m34 -23 c0 -16 -6 -30 -12 -32 -9 -3 -13 7 -13 32 0 25 4 35 13 33 6 -3
12 -17 12 -33z"/>
<path d="M246 1591 c-4 -5 3 -7 14 -4 26 7 26 -18 0 -42 -27 -25 -25 -35 8
-34 24 2 25 2 4 6 l-24 5 22 23 c13 14 20 31 17 39 -7 17 -32 21 -41 7z"/>
<path d="M311 1578 c-11 -30 2 -63 25 -63 27 0 28 78 1 83 -11 2 -20 -5 -26
-20z m34 -23 c0 -16 -6 -30 -12 -32 -9 -3 -13 7 -13 32 0 25 4 35 13 33 6 -3
12 -17 12 -33z"/>
<path d="M261 1045 c-2 -5 -2 -23 -1 -39 1 -16 -4 -33 -12 -37 -9 -6 -3 -9 17
-9 17 0 25 4 18 8 -6 4 -13 25 -16 47 -2 22 -5 36 -6 30z"/>
<path d="M311 1028 c-11 -30 2 -63 25 -63 27 0 28 78 1 83 -11 2 -20 -5 -26
-20z m34 -23 c0 -16 -6 -30 -12 -32 -9 -3 -13 7 -13 32 0 25 4 35 13 33 6 -3
12 -17 12 -33z"/>
<path d="M311 478 c-11 -30 2 -63 25 -63 27 0 28 78 1 83 -11 2 -20 -5 -26
-20z m34 -23 c0 -16 -6 -30 -12 -32 -9 -3 -13 7 -13 32 0 25 4 35 13 33 6 -3
12 -17 12 -33z"/>
<path d="M547 353 c-15 -14 -6 -43 18 -59 27 -18 45 -12 45 15 0 31 -45 62
-63 44z m34 -13 c17 -10 28 -50 12 -50 -12 0 -43 33 -43 47 0 16 5 16 31 3z"/>
<path d="M744 345 c-4 -9 -4 -19 0 -22 3 -4 6 2 6 11 0 33 25 9 30 -28 l5 -38
20 23 c13 16 14 19 3 11 -15 -12 -17 -10 -20 20 -3 36 -33 52 -44 23z"/>
<path d="M950 350 c0 -5 4 -10 9 -10 4 0 6 -11 3 -25 -4 -21 -7 -23 -24 -14
-42 23 -65 -13 -29 -45 25 -22 57 -17 54 9 -2 22 25 45 44 38 21 -8 15 4 -14
32 -29 27 -43 31 -43 15z m35 -29 c3 -5 1 -12 -5 -16 -5 -3 -10 1 -10 9 0 18
6 21 15 7z m-43 -38 c23 -21 23 -33 0 -33 -21 0 -42 18 -42 37 0 18 20 16 42
-4z"/>
<path d="M1144 346 c-3 -8 0 -24 6 -36 11 -20 10 -21 -10 -10 -44 23 -68 -11
-31 -44 27 -24 57 -17 53 13 -1 18 2 21 17 16 10 -3 24 1 31 10 11 13 11 19
-3 33 -13 13 -19 14 -29 4 -7 -7 -16 -12 -20 -12 -13 0 -9 28 5 33 9 4 9 6 -1
6 -7 1 -15 -5 -18 -13z m59 -31 c8 -18 -11 -31 -25 -17 -11 11 -3 32 12 32 4
0 10 -7 13 -15z m-61 -32 c23 -21 23 -33 0 -33 -21 0 -42 18 -42 37 0 18 20
16 42 -4z"/>
<path d="M1344 346 c-6 -17 25 -65 42 -66 6 0 17 7 24 15 10 12 8 19 -11 40
-27 28 -47 32 -55 11z m28 -11 c0 -5 -5 -11 -11 -13 -6 -2 -11 4 -11 13 0 9 5
15 11 13 6 -2 11 -8 11 -13z m33 -24 c7 -12 -12 -24 -25 -16 -11 7 -4 25 10
25 5 0 11 -4 15 -9z"/>
<path d="M1744 345 c-4 -9 -4 -19 0 -22 3 -4 6 2 6 11 0 33 25 9 30 -28 l5
-38 20 23 c13 16 14 19 3 11 -15 -12 -17 -10 -20 20 -3 36 -33 52 -44 23z"/>
<path d="M1950 350 c0 -5 4 -10 9 -10 4 0 6 -11 3 -25 -4 -24 11 -35 23 -15 3
5 12 7 20 3 23 -8 18 3 -12 32 -29 27 -43 31 -43 15z m35 -29 c3 -5 1 -12 -5
-16 -5 -3 -10 1 -10 9 0 18 6 21 15 7z"/>
<path d="M2145 350 c-10 -16 5 -49 27 -61 16 -9 24 -7 36 5 15 15 15 17 -1 33
-13 13 -19 15 -29 5 -7 -7 -16 -12 -20 -12 -13 0 -9 28 5 33 9 4 9 6 0 6 -6 1
-15 -4 -18 -9z m58 -35 c8 -18 -11 -31 -25 -17 -11 11 -3 32 12 32 4 0 10 -7
13 -15z"/>
<path d="M2344 346 c-6 -17 25 -65 42 -66 6 0 17 7 24 15 10 12 8 19 -11 40
-27 28 -47 32 -55 11z m28 -11 c0 -5 -5 -11 -11 -13 -6 -2 -11 4 -11 13 0 9 5
15 11 13 6 -2 11 -8 11 -13z m33 -24 c7 -12 -12 -24 -25 -16 -11 7 -4 25 10
25 5 0 11 -4 15 -9z"/>
<path d="M2544 345 c-4 -9 -4 -19 0 -22 3 -4 6 2 6 11 0 33 25 9 30 -28 l5
-38 20 23 c13 16 14 19 3 11 -15 -12 -17 -10 -20 20 -3 36 -33 52 -44 23z"/>
<path d="M2744 345 c-4 -9 -4 -19 0 -22 3 -4 6 2 6 11 0 33 25 10 28 -25 2
-25 -3 -40 -18 -54 -20 -18 -20 -18 -20 18 0 30 -4 37 -19 37 -10 0 -22 -8
-26 -17 -5 -15 -4 -16 6 -5 20 19 29 14 29 -17 0 -45 13 -44 56 1 21 23 31 36
22 29 -15 -11 -17 -8 -20 21 -3 36 -33 52 -44 23z"/>
<path d="M2950 350 c0 -5 4 -10 9 -10 4 0 6 -11 3 -25 -4 -24 11 -35 23 -15 3
5 12 7 20 3 23 -8 18 3 -12 32 -29 27 -43 31 -43 15z m35 -29 c3 -5 1 -12 -5
-16 -5 -3 -10 1 -10 9 0 18 6 21 15 7z"/>
<path d="M3150 344 c-11 -13 -9 -19 13 -42 25 -25 28 -25 44 -9 16 16 16 18 1
34 -14 13 -20 14 -32 4 -9 -8 -16 -8 -20 -2 -4 5 2 14 11 20 10 6 13 11 7 11
-6 0 -17 -7 -24 -16z m56 -25 c3 -6 2 -15 -2 -19 -12 -12 -38 5 -30 19 9 14
23 14 32 0z"/>
<path d="M3350 345 c-10 -13 -8 -20 14 -42 25 -24 28 -25 43 -10 15 15 14 18
-8 41 -28 30 -32 31 -49 11z m30 -4 c0 -12 -20 -25 -27 -18 -7 7 6 27 18 27 5
0 9 -4 9 -9z m28 -33 c-6 -18 -28 -21 -28 -4 0 9 7 16 16 16 9 0 14 -5 12 -12z"/>
<path d="M3552 348 c-7 -7 -12 -16 -12 -22 0 -5 6 -2 13 9 10 12 16 14 21 7 4
-7 5 -16 2 -21 -4 -5 3 -7 14 -4 25 7 26 -12 3 -26 -10 -6 -13 -11 -7 -11 6 0
17 7 24 15 10 12 8 19 -11 40 -28 28 -31 29 -47 13z"/>
<path d="M3752 348 c-7 -7 -12 -17 -12 -22 0 -6 5 -3 11 7 14 24 29 12 29 -24
0 -33 11 -37 31 -11 13 15 12 16 -3 4 -15 -12 -17 -10 -20 19 -3 36 -17 46
-36 27z"/>
<path d="M3960 331 c0 -34 15 -48 34 -32 7 6 16 8 20 4 4 -4 4 -1 1 7 -3 8
-17 23 -30 33 l-25 18 0 -30z m22 -23 c-9 -9 -12 -7 -12 12 0 19 3 21 12 12 9
-9 9 -15 0 -24z"/>
<path d="M4150 344 c-11 -13 -9 -19 13 -42 25 -25 28 -25 44 -9 16 16 16 18 1
34 -14 13 -20 14 -32 4 -9 -8 -16 -8 -20 -2 -4 5 2 14 11 20 10 6 13 11 7 11
-6 0 -17 -7 -24 -16z m56 -25 c3 -6 2 -15 -2 -19 -12 -12 -38 5 -30 19 9 14
23 14 32 0z"/>
<path d="M4350 345 c-10 -13 -8 -20 14 -42 25 -24 28 -25 43 -10 15 15 14 18
-8 41 -28 30 -32 31 -49 11z m30 -4 c0 -12 -20 -25 -27 -18 -7 7 6 27 18 27 5
0 9 -4 9 -9z m28 -33 c-6 -18 -28 -21 -28 -4 0 9 7 16 16 16 9 0 14 -5 12 -12z"/>
<path d="M4560 331 c0 -34 15 -48 34 -32 7 6 16 8 20 4 4 -4 4 -1 1 7 -3 8
-17 23 -30 33 l-25 18 0 -30z m22 -23 c-9 -9 -12 -7 -12 12 0 19 3 21 12 12 9
-9 9 -15 0 -24z"/>
<path d="M4752 348 c-7 -7 -12 -17 -12 -22 0 -6 5 -3 11 7 14 24 29 12 29 -24
0 -33 11 -37 31 -11 13 15 12 16 -3 4 -15 -12 -17 -10 -20 19 -3 36 -17 46
-36 27z"/>
<path d="M4960 331 c0 -34 15 -48 34 -32 7 6 16 8 20 4 4 -4 4 -1 1 7 -3 8
-17 23 -30 33 l-25 18 0 -30z m22 -23 c-9 -9 -12 -7 -12 12 0 19 3 21 12 12 9
-9 9 -15 0 -24z"/>
<path d="M5150 344 c-11 -13 -9 -19 13 -42 25 -25 28 -25 44 -9 16 16 16 18 1
34 -14 13 -20 14 -32 4 -9 -8 -16 -8 -20 -2 -4 5 2 14 11 20 10 6 13 11 7 11
-6 0 -17 -7 -24 -16z m56 -25 c3 -6 2 -15 -2 -19 -12 -12 -38 5 -30 19 9 14
23 14 32 0z"/>
<path d="M5350 345 c-10 -13 -8 -20 14 -42 25 -24 28 -25 43 -10 15 15 14 18
-8 41 -28 30 -32 31 -49 11z m30 -4 c0 -12 -20 -25 -27 -18 -7 7 6 27 18 27 5
0 9 -4 9 -9z m28 -33 c-6 -18 -28 -21 -28 -4 0 9 7 16 16 16 9 0 14 -5 12 -12z"/>
<path d="M5550 345 c-10 -12 -10 -18 0 -30 11 -13 14 -13 26 2 10 15 15 16 26
5 11 -11 10 -16 -6 -28 -11 -8 -15 -14 -9 -14 6 0 16 7 23 16 11 12 10 18 -3
31 -13 14 -19 14 -32 3 -20 -17 -32 -5 -15 15 7 8 10 15 7 15 -2 0 -10 -7 -17
-15z"/>
<path d="M5752 348 c-7 -7 -12 -17 -12 -22 0 -6 5 -3 11 7 14 24 29 12 29 -24
0 -33 11 -37 31 -11 13 15 12 16 -3 4 -15 -12 -17 -10 -20 19 -3 36 -17 46
-36 27z"/>
<path d="M5960 331 c0 -34 15 -48 34 -32 7 6 16 8 20 4 4 -4 4 -1 1 7 -3 8
-17 23 -30 33 l-25 18 0 -30z m22 -23 c-9 -9 -12 -7 -12 12 0 19 3 21 12 12 9
-9 9 -15 0 -24z"/>
<path d="M6157 353 c-14 -13 -6 -42 14 -57 25 -17 49 -11 49 14 0 22 -28 34
-46 19 -11 -9 -14 -8 -14 4 0 8 6 18 13 20 6 3 7 6 1 6 -6 1 -14 -2 -17 -6z
m48 -41 c0 -18 -20 -15 -23 4 -3 10 1 15 10 12 7 -3 13 -10 13 -16z"/>
<path d="M6350 345 c-10 -13 -8 -20 13 -40 15 -16 31 -23 41 -19 20 8 21 44 2
44 -8 0 -16 7 -20 15 -7 19 -20 19 -36 0z m30 -10 c0 -8 7 -15 16 -15 9 0 14
-5 12 -12 -6 -18 -28 -22 -28 -5 0 8 -7 18 -16 21 -8 3 -12 10 -9 16 9 15 25
12 25 -5z"/>
<path d="M6557 353 c-14 -13 -6 -42 14 -57 25 -17 49 -11 49 14 0 22 -28 34
-46 19 -11 -9 -14 -8 -14 4 0 8 6 18 13 20 6 3 7 6 1 6 -6 1 -14 -2 -17 -6z
m48 -41 c0 -18 -20 -15 -23 4 -3 10 1 15 10 12 7 -3 13 -10 13 -16z"/>
<path d="M6752 348 c-7 -7 -12 -17 -12 -22 0 -6 5 -3 11 7 16 28 29 20 29 -18
0 -39 10 -44 31 -17 13 15 12 16 -3 4 -15 -12 -17 -10 -20 19 -3 36 -17 46
-36 27z"/>
<path d="M6960 339 c0 -16 3 -20 9 -11 6 10 10 10 21 -3 11 -14 7 -19 -12 -16
-5 0 -8 -3 -8 -9 0 -13 17 -13 25 0 4 6 10 8 14 6 4 -3 8 1 8 9 0 8 -5 15 -10
15 -6 0 -19 7 -29 17 -17 15 -18 15 -18 -8z"/>
<path d="M7157 353 c-14 -13 -6 -42 14 -57 25 -17 49 -11 49 14 0 22 -28 34
-46 19 -11 -9 -14 -8 -14 4 0 8 6 18 13 20 6 3 7 6 1 6 -6 1 -14 -2 -17 -6z
m48 -41 c0 -18 -20 -15 -23 4 -3 10 1 15 10 12 7 -3 13 -10 13 -16z"/>
<path d="M7350 345 c-10 -13 -8 -20 13 -40 15 -16 31 -23 41 -19 20 8 21 44 2
44 -8 0 -16 7 -20 15 -7 19 -20 19 -36 0z m30 -10 c0 -8 7 -15 16 -15 9 0 14
-5 12 -12 -6 -18 -28 -22 -28 -5 0 8 -7 18 -16 21 -8 3 -12 10 -9 16 9 15 25
12 25 -5z"/>
<path d="M7549 343 c-12 -16 -12 -17 2 -6 9 7 19 10 22 6 4 -3 7 -1 7 5 0 17
-16 15 -31 -5z"/>
<path d="M7752 348 c-7 -7 -12 -17 -12 -22 0 -6 5 -3 11 7 16 28 29 20 29 -18
0 -39 10 -44 31 -17 13 15 12 16 -3 4 -15 -12 -17 -10 -20 19 -3 36 -17 46
-36 27z"/>
<path d="M7960 339 c0 -16 3 -20 9 -11 6 10 10 10 21 -3 11 -14 7 -19 -12 -16
-5 0 -8 -3 -8 -9 0 -13 17 -13 25 0 4 6 10 8 14 6 4 -3 8 1 8 9 0 8 -5 15 -10
15 -6 0 -19 7 -29 17 -17 15 -18 15 -18 -8z"/>
<path d="M8157 353 c-14 -13 -6 -42 14 -57 25 -17 49 -11 49 14 0 22 -28 34
-46 19 -11 -9 -14 -8 -14 4 0 8 6 18 13 20 6 3 7 6 1 6 -6 1 -14 -2 -17 -6z
m48 -41 c0 -18 -20 -15 -23 4 -3 10 1 15 10 12 7 -3 13 -10 13 -16z"/>
<path d="M8350 345 c-10 -13 -8 -20 13 -40 15 -16 31 -23 41 -19 20 8 21 44 2
44 -8 0 -16 7 -20 15 -7 19 -20 19 -36 0z m30 -10 c0 -8 7 -15 16 -15 9 0 14
-5 12 -12 -6 -18 -28 -22 -28 -5 0 8 -7 18 -16 21 -8 3 -12 10 -9 16 9 15 25
12 25 -5z"/>
<path d="M8550 345 c-10 -13 -8 -20 13 -40 15 -16 31 -23 41 -19 20 8 21 44 2
44 -8 0 -16 7 -20 15 -7 19 -20 19 -36 0z m30 -10 c0 -8 7 -15 16 -15 9 0 14
-5 12 -12 -6 -18 -28 -22 -28 -5 0 8 -7 18 -16 21 -8 3 -12 10 -9 16 9 15 25
12 25 -5z"/>
<path d="M8752 348 c-7 -7 -12 -17 -12 -22 0 -6 5 -3 11 7 16 28 29 20 29 -18
0 -39 10 -44 31 -17 13 15 12 16 -3 4 -15 -12 -17 -10 -20 19 -3 36 -17 46
-36 27z"/>
<path d="M8960 344 c0 -8 4 -13 9 -10 5 3 14 -1 20 -8 8 -9 8 -17 2 -20 -5 -3
-12 0 -14 6 -3 8 -6 6 -6 -4 -1 -20 14 -24 24 -8 4 6 11 8 16 5 19 -12 8 18
-13 36 -28 23 -38 24 -38 3z"/>
<path d="M9157 353 c-15 -14 -6 -43 18 -59 28 -18 45 -12 45 17 0 25 -25 35
-45 19 -12 -10 -15 -10 -15 3 0 8 6 18 13 20 6 3 7 6 1 6 -6 1 -14 -2 -17 -6z
m51 -47 c3 -12 -1 -17 -10 -14 -7 3 -15 13 -16 22 -3 12 1 17 10 14 7 -3 15
-13 16 -22z"/>
<path d="M9355 350 c-3 -6 1 -7 9 -4 11 4 16 0 16 -11 0 -11 -5 -15 -15 -11
-20 7 -19 -1 4 -26 12 -12 26 -18 35 -15 20 8 21 47 1 47 -8 0 -15 7 -15 15 0
17 -25 20 -35 5z m55 -46 c0 -17 -22 -14 -28 4 -2 7 3 12 12 12 9 0 16 -7 16
-16z"/>
<path d="M9557 353 c-13 -12 -7 -44 8 -49 8 -4 22 -1 30 6 12 10 15 10 15 -3
0 -8 -5 -18 -10 -20 -6 -3 -5 -4 2 -3 23 5 20 43 -4 60 -25 18 -31 19 -41 9z
m28 -21 c0 -18 -20 -15 -23 4 -3 10 1 15 10 12 7 -3 13 -10 13 -16z"/>
<path d="M9753 345 c-3 -9 -3 -19 1 -22 3 -4 6 1 6 10 0 25 19 21 30 -5 5 -13
9 -18 9 -11 2 38 -33 59 -46 28z"/>
<path d="M9960 344 c0 -8 4 -13 9 -10 5 3 14 -1 20 -8 8 -9 8 -17 2 -20 -5 -3
-12 0 -14 6 -3 8 -6 6 -6 -4 -1 -20 14 -24 24 -8 4 6 11 8 16 5 19 -12 8 18
-13 36 -28 23 -38 24 -38 3z"/>
<path d="M10157 353 c-15 -14 -6 -43 18 -59 28 -18 45 -12 45 17 0 25 -25 35
-45 19 -12 -10 -15 -10 -15 3 0 8 6 18 13 20 6 3 7 6 1 6 -6 1 -14 -2 -17 -6z
m51 -47 c3 -12 -1 -17 -10 -14 -7 3 -15 13 -16 22 -3 12 1 17 10 14 7 -3 15
-13 16 -22z"/>
<path d="M10355 350 c-3 -6 1 -7 9 -4 11 4 16 0 16 -11 0 -11 -5 -15 -15 -11
-20 7 -19 -1 4 -26 12 -12 26 -18 35 -15 20 8 21 47 1 47 -8 0 -15 7 -15 15 0
17 -25 20 -35 5z m55 -46 c0 -17 -22 -14 -28 4 -2 7 3 12 12 12 9 0 16 -7 16
-16z"/>
<path d="M1545 340 c-4 -6 -4 -14 -1 -17 3 -4 6 0 6 7 0 9 6 8 20 -5 11 -10
20 -25 20 -33 0 -12 3 -12 16 -1 13 11 13 14 3 17 -8 3 -24 13 -35 24 -15 14
-24 16 -29 8z"/>
<path d="M7580 324 c0 -13 18 -39 24 -34 2 3 -2 14 -10 24 -8 11 -14 16 -14
10z"/>
<path d="M7704 298 c-10 -13 -12 -17 -4 -10 18 16 30 15 30 -1 0 -7 7 -22 15
-33 12 -16 12 -12 -1 21 -9 22 -17 41 -18 43 -2 1 -11 -8 -22 -20z"/>
<path d="M7904 298 c-10 -13 -12 -17 -4 -10 18 16 30 15 30 -1 0 -7 7 -22 15
-33 12 -16 12 -12 -1 21 -9 22 -17 41 -18 43 -2 1 -11 -8 -22 -20z"/>
<path d="M8104 298 c-10 -13 -12 -17 -4 -10 18 16 30 15 30 -1 0 -7 7 -22 15
-33 12 -16 12 -12 -1 21 -9 22 -17 41 -18 43 -2 1 -11 -8 -22 -20z"/>
<path d="M8304 298 c-10 -13 -12 -17 -4 -10 18 16 30 15 30 -1 0 -7 7 -22 15
-33 12 -16 12 -12 -1 21 -9 22 -17 41 -18 43 -2 1 -11 -8 -22 -20z"/>
<path d="M693 295 c-8 -21 26 -57 51 -53 28 4 31 23 7 47 -25 25 -49 27 -58 6z
m49 -12 c23 -21 23 -33 0 -33 -21 0 -42 18 -42 37 0 18 20 16 42 -4z"/>
<path d="M1293 295 c-8 -21 26 -57 51 -53 28 4 31 23 7 47 -25 25 -49 27 -58
6z m49 -12 c23 -21 23 -33 0 -33 -21 0 -42 18 -42 37 0 18 20 16 42 -4z"/>
<path d="M2895 293 c-5 -15 -4 -16 6 -5 20 19 29 14 29 -17 0 -39 13 -46 36
-18 l19 22 -22 -19 -23 -19 0 36 c0 30 -4 37 -19 37 -10 0 -22 -8 -26 -17z"/>
<path d="M3095 293 c-5 -15 -4 -16 6 -5 20 19 29 14 29 -17 0 -39 13 -46 36
-18 l19 22 -22 -19 -23 -19 0 36 c0 30 -4 37 -19 37 -10 0 -22 -8 -26 -17z"/>
<path d="M3295 293 c-5 -15 -4 -16 6 -5 20 19 29 14 29 -17 0 -39 13 -46 36
-18 l19 22 -22 -19 -23 -19 0 36 c0 30 -4 37 -19 37 -10 0 -22 -8 -26 -17z"/>
<path d="M3696 294 c-9 -24 -7 -31 5 -11 5 9 14 17 19 17 5 0 11 -8 13 -17 4
-14 5 -12 6 5 1 26 -33 32 -43 6z"/>
<path d="M3896 294 c-9 -24 -7 -31 5 -11 5 9 14 17 19 17 5 0 11 -8 13 -17 4
-14 5 -12 6 5 1 26 -33 32 -43 6z"/>
<path d="M4096 294 c-9 -24 -7 -31 5 -11 5 9 14 17 19 17 5 0 11 -8 13 -17 4
-14 5 -12 6 5 1 26 -33 32 -43 6z"/>
<path d="M4296 294 c-9 -24 -7 -31 5 -11 5 9 14 17 19 17 5 0 11 -8 13 -17 4
-14 5 -12 6 5 1 26 -33 32 -43 6z"/>
<path d="M4710 288 c0 -17 3 -19 9 -9 7 10 10 10 16 1 4 -7 2 -16 -6 -21 -7
-4 -10 -11 -6 -15 3 -4 13 -2 20 4 8 7 17 9 20 5 4 -3 7 -1 7 6 0 13 -39 50
-52 51 -5 0 -8 -10 -8 -22z"/>
<path d="M4910 288 c0 -17 3 -19 9 -9 7 10 10 10 16 1 4 -7 2 -16 -6 -21 -7
-4 -10 -11 -6 -15 3 -4 13 -2 20 4 8 7 17 9 20 5 4 -3 7 -1 7 6 0 13 -39 50
-52 51 -5 0 -8 -10 -8 -22z"/>
<path d="M5110 288 c0 -17 3 -19 9 -9 7 10 10 10 16 1 4 -7 2 -16 -6 -21 -7
-4 -10 -11 -6 -15 3 -4 13 -2 20 4 8 7 17 9 20 5 4 -3 7 -1 7 6 0 13 -39 50
-52 51 -5 0 -8 -10 -8 -22z"/>
<path d="M5310 288 c0 -17 3 -19 9 -9 7 10 10 10 16 1 4 -7 2 -16 -6 -21 -7
-4 -10 -11 -6 -15 3 -4 13 -2 20 4 8 7 17 9 20 5 4 -3 7 -1 7 6 0 13 -39 50
-52 51 -5 0 -8 -10 -8 -22z"/>
<path d="M5701 296 c-9 -10 -7 -17 6 -27 13 -11 17 -11 20 -1 6 16 33 16 33
-1 0 -7 -6 -19 -12 -26 -11 -10 -10 -11 5 -6 21 9 23 43 2 51 -8 4 -21 1 -29
-5 -17 -14 -29 -2 -15 16 6 7 9 13 6 13 -2 0 -10 -6 -16 -14z"/>
<path d="M5901 296 c-9 -10 -7 -17 6 -27 13 -11 17 -11 20 -1 6 16 33 16 33
-1 0 -7 -6 -19 -12 -26 -11 -10 -10 -11 5 -6 21 9 23 43 2 51 -8 4 -21 1 -29
-5 -17 -14 -29 -2 -15 16 6 7 9 13 6 13 -2 0 -10 -6 -16 -14z"/>
<path d="M6101 296 c-9 -10 -7 -17 6 -27 13 -11 17 -11 20 -1 6 16 33 16 33
-1 0 -7 -6 -19 -12 -26 -11 -10 -10 -11 5 -6 21 9 23 43 2 51 -8 4 -21 1 -29
-5 -17 -14 -29 -2 -15 16 6 7 9 13 6 13 -2 0 -10 -6 -16 -14z"/>
<path d="M6301 296 c-9 -10 -7 -17 6 -27 13 -11 17 -11 20 -1 6 16 33 16 33
-1 0 -7 -6 -19 -12 -26 -11 -10 -10 -11 5 -6 21 9 23 43 2 51 -8 4 -21 1 -29
-5 -17 -14 -29 -2 -15 16 6 7 9 13 6 13 -2 0 -10 -6 -16 -14z"/>
<path d="M6704 296 c-9 -24 15 -56 41 -56 18 0 25 5 25 20 0 25 -25 36 -45 20
-12 -10 -15 -10 -15 3 0 8 6 18 13 20 9 4 9 6 -1 6 -7 1 -15 -5 -18 -13z m56
-31 c0 -8 -7 -15 -15 -15 -8 0 -15 7 -15 15 0 8 7 15 15 15 8 0 15 -7 15 -15z"/>
<path d="M6904 296 c-9 -24 15 -56 41 -56 18 0 25 5 25 20 0 25 -25 36 -45 20
-12 -10 -15 -10 -15 3 0 8 6 18 13 20 9 4 9 6 -1 6 -7 1 -15 -5 -18 -13z m56
-31 c0 -8 -7 -15 -15 -15 -8 0 -15 7 -15 15 0 8 7 15 15 15 8 0 15 -7 15 -15z"/>
<path d="M7104 296 c-9 -24 15 -56 41 -56 18 0 25 5 25 20 0 25 -25 36 -45 20
-12 -10 -15 -10 -15 3 0 8 6 18 13 20 9 4 9 6 -1 6 -7 1 -15 -5 -18 -13z m56
-31 c0 -8 -7 -15 -15 -15 -8 0 -15 7 -15 15 0 8 7 15 15 15 8 0 15 -7 15 -15z"/>
<path d="M7304 296 c-9 -24 15 -56 41 -56 18 0 25 5 25 20 0 25 -25 36 -45 20
-12 -10 -15 -10 -15 3 0 8 6 18 13 20 9 4 9 6 -1 6 -7 1 -15 -5 -18 -13z m56
-31 c0 -8 -7 -15 -15 -15 -8 0 -15 7 -15 15 0 8 7 15 15 15 8 0 15 -7 15 -15z"/>
<path d="M8703 294 c-3 -10 4 -26 20 -42 22 -21 29 -24 39 -14 11 11 10 12 -3
7 -21 -8 -35 13 -21 27 8 8 16 7 29 -3 10 -7 7 -1 -6 14 -28 30 -49 35 -58 11z
m29 -9 c0 -5 -5 -11 -11 -13 -6 -2 -11 4 -11 13 0 9 5 15 11 13 6 -2 11 -8 11
-13z"/>
<path d="M8903 294 c-3 -10 4 -26 20 -42 22 -21 29 -24 39 -14 11 11 10 12 -3
7 -21 -8 -35 13 -21 27 8 8 16 7 29 -3 10 -7 7 -1 -6 14 -28 30 -49 35 -58 11z
m29 -9 c0 -5 -5 -11 -11 -13 -6 -2 -11 4 -11 13 0 9 5 15 11 13 6 -2 11 -8 11
-13z"/>
<path d="M9103 294 c-3 -10 4 -26 20 -42 22 -21 29 -24 39 -14 11 11 10 12 -3
7 -21 -8 -35 13 -21 27 8 8 16 7 29 -3 10 -7 7 -1 -6 14 -28 30 -49 35 -58 11z
m29 -9 c0 -5 -5 -11 -11 -13 -6 -2 -11 4 -11 13 0 9 5 15 11 13 6 -2 11 -8 11
-13z"/>
<path d="M9303 294 c-3 -10 4 -26 20 -42 22 -21 29 -24 39 -14 11 11 10 12 -3
7 -21 -8 -35 13 -21 27 8 8 16 7 29 -3 10 -7 7 -1 -6 14 -28 30 -49 35 -58 11z
m29 -9 c0 -5 -5 -11 -11 -13 -6 -2 -11 4 -11 13 0 9 5 15 11 13 6 -2 11 -8 11
-13z"/>
<path d="M9703 294 c-3 -8 1 -22 9 -30 13 -14 17 -14 32 1 15 15 16 15 16 -3
0 -11 -5 -23 -10 -25 -6 -3 -5 -4 2 -3 20 4 21 36 2 57 -21 23 -42 25 -51 3z
m37 -9 c0 -8 -7 -15 -15 -15 -8 0 -15 7 -15 15 0 8 7 15 15 15 8 0 15 -7 15
-15z"/>
<path d="M9806 295 c-11 -8 -17 -17 -14 -20 2 -3 13 4 23 15 21 23 18 25 -9 5z"/>
<path d="M9903 294 c-3 -8 1 -22 9 -30 13 -14 17 -14 32 1 15 15 16 15 16 -3
0 -11 -5 -23 -10 -25 -6 -3 -5 -4 2 -3 20 4 21 36 2 57 -21 23 -42 25 -51 3z
m37 -9 c0 -8 -7 -15 -15 -15 -8 0 -15 7 -15 15 0 8 7 15 15 15 8 0 15 -7 15
-15z"/>
<path d="M10103 294 c-3 -8 1 -22 9 -30 13 -14 17 -14 32 1 15 15 16 15 16 -3
0 -11 -5 -23 -10 -25 -6 -3 -5 -4 2 -3 20 4 21 36 2 57 -21 23 -42 25 -51 3z
m37 -9 c0 -8 -7 -15 -15 -15 -8 0 -15 7 -15 15 0 8 7 15 15 15 8 0 15 -7 15
-15z"/>
<path d="M10303 294 c-3 -8 1 -22 9 -30 13 -14 17 -14 32 1 15 15 16 15 16 -3
0 -11 -5 -23 -10 -25 -6 -3 -5 -4 2 -3 20 4 21 36 2 57 -21 23 -42 25 -51 3z
m37 -9 c0 -8 -7 -15 -15 -15 -8 0 -15 7 -15 15 0 8 7 15 15 15 8 0 15 -7 15
-15z"/>
<path d="M1723 272 c15 -16 24 -32 20 -37 -5 -5 0 -3 9 4 16 12 15 15 -11 37
-40 33 -51 30 -18 -4z"/>
<path d="M1923 272 c15 -16 24 -32 20 -37 -5 -5 0 -3 9 4 16 12 15 15 -11 37
-40 33 -51 30 -18 -4z"/>
<path d="M2123 272 c15 -16 24 -32 20 -37 -5 -5 0 -3 9 4 16 12 15 15 -11 37
-40 33 -51 30 -18 -4z"/>
<path d="M2323 272 c15 -16 24 -32 20 -37 -5 -5 0 -3 9 4 16 12 15 15 -11 37
-40 33 -51 30 -18 -4z"/>
<path d="M1477 283 c-15 -14 -6 -43 18 -59 27 -18 45 -12 45 15 0 31 -45 62
-63 44z m34 -13 c17 -10 28 -50 12 -50 -12 0 -43 33 -43 47 0 16 5 16 31 3z"/>
<path d="M2477 283 c-15 -14 -6 -43 18 -59 27 -18 45 -12 45 15 0 31 -45 62
-63 44z m34 -13 c17 -10 28 -50 12 -50 -12 0 -43 33 -43 47 0 16 5 16 31 3z"/>
<path d="M3477 283 c-15 -14 -6 -43 18 -59 27 -18 45 -12 45 15 0 31 -45 62
-63 44z m34 -13 c17 -10 28 -50 12 -50 -12 0 -43 33 -43 47 0 16 5 16 31 3z"/>
<path d="M4481 276 c-26 -31 28 -81 57 -52 14 14 14 18 -8 41 -27 29 -33 30
-49 11z m44 -16 c14 -16 16 -23 7 -32 -10 -10 -17 -7 -33 9 -12 11 -18 26 -15
32 10 16 21 14 41 -9z"/>
<path d="M5481 276 c-26 -31 28 -81 57 -52 14 14 14 18 -8 41 -27 29 -33 30
-49 11z m44 -16 c14 -16 16 -23 7 -32 -10 -10 -17 -7 -33 9 -12 11 -18 26 -15
32 10 16 21 14 41 -9z"/>
<path d="M6481 276 c-26 -31 28 -81 57 -52 14 14 14 18 -8 41 -27 29 -33 30
-49 11z m44 -16 c14 -16 16 -23 7 -32 -10 -10 -17 -7 -33 9 -12 11 -18 26 -15
32 10 16 21 14 41 -9z"/>
<path d="M7480 274 c-11 -13 -9 -19 11 -40 16 -16 31 -22 42 -18 23 8 21 30
-3 54 -24 24 -33 25 -50 4z m45 -14 c13 -15 15 -24 8 -31 -13 -13 -57 26 -48
41 9 15 20 12 40 -10z"/>
<path d="M8480 274 c-11 -13 -9 -19 11 -40 16 -16 31 -22 42 -18 23 8 21 30
-3 54 -24 24 -33 25 -50 4z m45 -14 c13 -15 15 -24 8 -31 -13 -13 -57 26 -48
41 9 15 20 12 40 -10z"/>
<path d="M9480 274 c-11 -13 -9 -19 11 -40 16 -16 31 -22 42 -18 23 8 21 30
-3 54 -24 24 -33 25 -50 4z m45 -14 c13 -15 15 -24 8 -31 -13 -13 -57 26 -48
41 9 15 20 12 40 -10z"/>
<path d="M3756 268 c4 -6 -1 -17 -11 -25 -11 -7 -14 -13 -9 -13 14 0 34 22 34
37 0 7 -5 13 -11 13 -5 0 -7 -5 -3 -12z"/>
<path d="M3956 268 c4 -6 -1 -17 -11 -25 -11 -7 -14 -13 -9 -13 14 0 34 22 34
37 0 7 -5 13 -11 13 -5 0 -7 -5 -3 -12z"/>
<path d="M4156 268 c4 -6 -1 -17 -11 -25 -11 -7 -14 -13 -9 -13 14 0 34 22 34
37 0 7 -5 13 -11 13 -5 0 -7 -5 -3 -12z"/>
<path d="M4356 268 c4 -6 -1 -17 -11 -25 -11 -7 -14 -13 -9 -13 14 0 34 22 34
37 0 7 -5 13 -11 13 -5 0 -7 -5 -3 -12z"/>
<path d="M627 233 c-20 -19 10 -63 44 -63 12 0 19 7 19 19 0 34 -44 64 -63 44z
m47 -25 c5 -9 7 -20 3 -25 -11 -10 -41 11 -45 31 -5 23 26 18 42 -6z"/>
<path d="M823 225 c-8 -21 26 -57 51 -53 28 4 31 23 7 47 -25 25 -49 27 -58 6z
m49 -12 c23 -21 23 -33 0 -33 -21 0 -42 18 -42 37 0 18 20 16 42 -4z"/>
<path d="M1023 225 c-8 -21 26 -57 51 -53 28 4 31 23 7 47 -25 25 -49 27 -58
6z m49 -12 c23 -21 23 -33 0 -33 -21 0 -42 18 -42 37 0 18 20 16 42 -4z"/>
<path d="M1223 225 c-8 -21 26 -57 51 -53 28 4 31 23 7 47 -25 25 -49 27 -58
6z m49 -12 c23 -21 23 -33 0 -33 -21 0 -42 18 -42 37 0 18 20 16 42 -4z"/>
<path d="M1623 225 c-8 -21 26 -57 51 -53 28 4 31 23 7 47 -25 25 -49 27 -58
6z m49 -12 c23 -21 23 -33 0 -33 -21 0 -42 18 -42 37 0 18 20 16 42 -4z"/>
<path d="M1823 225 c-8 -21 26 -57 51 -53 28 4 31 23 7 47 -25 25 -49 27 -58
6z m49 -12 c23 -21 23 -33 0 -33 -21 0 -42 18 -42 37 0 18 20 16 42 -4z"/>
<path d="M2023 225 c-8 -21 26 -57 51 -53 28 4 31 23 7 47 -25 25 -49 27 -58
6z m49 -12 c23 -21 23 -33 0 -33 -21 0 -42 18 -42 37 0 18 20 16 42 -4z"/>
<path d="M2223 225 c-8 -21 26 -57 51 -53 28 4 31 23 7 47 -25 25 -49 27 -58
6z m49 -12 c23 -21 23 -33 0 -33 -21 0 -42 18 -42 37 0 18 20 16 42 -4z"/>
<path d="M2623 225 c-8 -21 26 -57 51 -53 28 4 31 23 7 47 -25 25 -49 27 -58
6z m49 -12 c23 -21 23 -33 0 -33 -21 0 -42 18 -42 37 0 18 20 16 42 -4z"/>
<path d="M2823 225 c-8 -21 26 -57 51 -53 28 4 31 23 7 47 -25 25 -49 27 -58
6z m49 -12 c23 -21 23 -33 0 -33 -21 0 -42 18 -42 37 0 18 20 16 42 -4z"/>
<path d="M3023 225 c-8 -21 26 -57 51 -53 28 4 31 23 7 47 -25 25 -49 27 -58
6z m49 -12 c23 -21 23 -33 0 -33 -21 0 -42 18 -42 37 0 18 20 16 42 -4z"/>
<path d="M3223 225 c-8 -21 26 -57 51 -53 28 4 31 23 7 47 -25 25 -49 27 -58
6z m49 -12 c23 -21 23 -33 0 -33 -21 0 -42 18 -42 37 0 18 20 16 42 -4z"/>
<path d="M3626 224 c-3 -9 4 -25 20 -40 20 -21 28 -23 39 -14 20 17 19 33 -3
53 -23 21 -48 22 -56 1z m49 -14 c13 -15 15 -24 8 -31 -13 -13 -57 26 -48 41
9 15 20 12 40 -10z"/>
<path d="M3826 224 c-3 -9 4 -25 20 -40 20 -21 28 -23 39 -14 20 17 19 33 -3
53 -23 21 -48 22 -56 1z m49 -14 c13 -15 15 -24 8 -31 -13 -13 -57 26 -48 41
9 15 20 12 40 -10z"/>
<path d="M4026 224 c-3 -9 4 -25 20 -40 20 -21 28 -23 39 -14 20 17 19 33 -3
53 -23 21 -48 22 -56 1z m49 -14 c13 -15 15 -24 8 -31 -13 -13 -57 26 -48 41
9 15 20 12 40 -10z"/>
<path d="M4226 224 c-3 -9 4 -25 20 -40 20 -21 28 -23 39 -14 20 17 19 33 -3
53 -23 21 -48 22 -56 1z m49 -14 c13 -15 15 -24 8 -31 -13 -13 -57 26 -48 41
9 15 20 12 40 -10z"/>
<path d="M4626 224 c-3 -9 4 -25 20 -40 20 -21 28 -23 39 -14 20 17 19 33 -3
53 -23 21 -48 22 -56 1z m49 -14 c13 -15 15 -24 8 -31 -13 -13 -57 26 -48 41
9 15 20 12 40 -10z"/>
<path d="M4826 224 c-3 -9 4 -25 20 -40 20 -21 28 -23 39 -14 20 17 19 33 -3
53 -23 21 -48 22 -56 1z m49 -14 c13 -15 15 -24 8 -31 -13 -13 -57 26 -48 41
9 15 20 12 40 -10z"/>
<path d="M5026 224 c-3 -9 4 -25 20 -40 20 -21 28 -23 39 -14 20 17 19 33 -3
53 -23 21 -48 22 -56 1z m49 -14 c13 -15 15 -24 8 -31 -13 -13 -57 26 -48 41
9 15 20 12 40 -10z"/>
<path d="M5226 224 c-3 -9 4 -25 20 -40 20 -21 28 -23 39 -14 20 17 19 33 -3
53 -23 21 -48 22 -56 1z m49 -14 c13 -15 15 -24 8 -31 -13 -13 -57 26 -48 41
9 15 20 12 40 -10z"/>
<path d="M5626 224 c-3 -9 4 -25 20 -40 20 -21 28 -23 39 -14 20 17 19 33 -3
53 -23 21 -48 22 -56 1z m49 -14 c13 -15 15 -24 8 -31 -13 -13 -57 26 -48 41
9 15 20 12 40 -10z"/>
<path d="M5826 224 c-3 -9 4 -25 20 -40 20 -21 28 -23 39 -14 20 17 19 33 -3
53 -23 21 -48 22 -56 1z m49 -14 c13 -15 15 -24 8 -31 -13 -13 -57 26 -48 41
9 15 20 12 40 -10z"/>
<path d="M6026 224 c-3 -9 4 -25 20 -40 20 -21 28 -23 39 -14 20 17 19 33 -3
53 -23 21 -48 22 -56 1z m49 -14 c13 -15 15 -24 8 -31 -13 -13 -57 26 -48 41
9 15 20 12 40 -10z"/>
<path d="M6226 224 c-3 -9 4 -25 20 -40 20 -21 28 -23 39 -14 20 17 19 33 -3
53 -23 21 -48 22 -56 1z m49 -14 c13 -15 15 -24 8 -31 -13 -13 -57 26 -48 41
9 15 20 12 40 -10z"/>
<path d="M6637 233 c-14 -13 -6 -42 14 -57 42 -29 69 13 31 47 -20 18 -34 21
-45 10z m43 -18 c7 -8 9 -22 6 -31 -6 -15 -8 -15 -26 1 -11 10 -20 24 -20 32
0 18 25 17 40 -2z"/>
<path d="M6837 233 c-14 -13 -6 -42 14 -57 42 -29 69 13 31 47 -20 18 -34 21
-45 10z m43 -18 c7 -8 9 -22 6 -31 -6 -15 -8 -15 -26 1 -11 10 -20 24 -20 32
0 18 25 17 40 -2z"/>
<path d="M7037 233 c-14 -13 -6 -42 14 -57 42 -29 69 13 31 47 -20 18 -34 21
-45 10z m43 -18 c7 -8 9 -22 6 -31 -6 -15 -8 -15 -26 1 -11 10 -20 24 -20 32
0 18 25 17 40 -2z"/>
<path d="M7237 233 c-14 -13 -6 -42 14 -57 42 -29 69 13 31 47 -20 18 -34 21
-45 10z m43 -18 c7 -8 9 -22 6 -31 -6 -15 -8 -15 -26 1 -11 10 -20 24 -20 32
0 18 25 17 40 -2z"/>
<path d="M7637 233 c-14 -13 -6 -42 14 -57 42 -29 69 13 31 47 -20 18 -34 21
-45 10z m43 -18 c7 -8 9 -22 6 -31 -6 -15 -8 -15 -26 1 -11 10 -20 24 -20 32
0 18 25 17 40 -2z"/>
<path d="M7837 233 c-14 -13 -6 -42 14 -57 42 -29 69 13 31 47 -20 18 -34 21
-45 10z m43 -18 c7 -8 9 -22 6 -31 -6 -15 -8 -15 -26 1 -11 10 -20 24 -20 32
0 18 25 17 40 -2z"/>
<path d="M8037 233 c-14 -13 -6 -42 14 -57 42 -29 69 13 31 47 -20 18 -34 21
-45 10z m43 -18 c7 -8 9 -22 6 -31 -6 -15 -8 -15 -26 1 -11 10 -20 24 -20 32
0 18 25 17 40 -2z"/>
<path d="M8237 233 c-14 -13 -6 -42 14 -57 42 -29 69 13 31 47 -20 18 -34 21
-45 10z m43 -18 c7 -8 9 -22 6 -31 -6 -15 -8 -15 -26 1 -11 10 -20 24 -20 32
0 18 25 17 40 -2z"/>
<path d="M8637 233 c-14 -13 -6 -42 14 -57 42 -29 69 13 31 47 -20 18 -34 21
-45 10z m43 -18 c7 -8 9 -22 6 -31 -6 -15 -8 -15 -26 1 -11 10 -20 24 -20 32
0 18 25 17 40 -2z"/>
<path d="M8837 233 c-14 -13 -6 -42 14 -57 42 -29 69 13 31 47 -20 18 -34 21
-45 10z m43 -18 c7 -8 9 -22 6 -31 -6 -15 -8 -15 -26 1 -11 10 -20 24 -20 32
0 18 25 17 40 -2z"/>
<path d="M9037 233 c-14 -13 -6 -42 14 -57 42 -29 69 13 31 47 -20 18 -34 21
-45 10z m43 -18 c7 -8 9 -22 6 -31 -6 -15 -8 -15 -26 1 -11 10 -20 24 -20 32
0 18 25 17 40 -2z"/>
<path d="M9237 233 c-14 -13 -6 -42 14 -57 42 -29 69 13 31 47 -20 18 -34 21
-45 10z m43 -18 c7 -8 9 -22 6 -31 -6 -15 -8 -15 -26 1 -11 10 -20 24 -20 32
0 18 25 17 40 -2z"/>
<path d="M9637 233 c-20 -19 10 -63 44 -63 12 0 19 7 19 19 0 34 -44 64 -63
44z m47 -25 c5 -9 7 -20 3 -25 -11 -10 -41 11 -45 31 -5 23 26 18 42 -6z"/>
<path d="M9837 233 c-20 -19 10 -63 44 -63 12 0 19 7 19 19 0 34 -44 64 -63
44z m47 -25 c5 -9 7 -20 3 -25 -11 -10 -41 11 -45 31 -5 23 26 18 42 -6z"/>
<path d="M10037 233 c-20 -19 10 -63 44 -63 12 0 19 7 19 19 0 34 -44 64 -63
44z m47 -25 c5 -9 7 -20 3 -25 -11 -10 -41 11 -45 31 -5 23 26 18 42 -6z"/>
<path d="M10237 233 c-20 -19 10 -63 44 -63 12 0 19 7 19 19 0 34 -44 64 -63
44z m47 -25 c5 -9 7 -20 3 -25 -11 -10 -41 11 -45 31 -5 23 26 18 42 -6z"/>
</g>
</svg>
